<?xml version="1.0" ?>
<!-- Uploaded to: SVG Repo, www.svgrepo.com, Generator: SVG Repo Mixer Tools -->
<svg fill="#000000" width="800px" height="800px" viewBox="0 0 32 32" style="fill-rule:evenodd;clip-rule:evenodd;stroke-linejoin:round;stroke-miterlimit:2;" version="1.1" xml:space="preserve" xmlns="http://www.w3.org/2000/svg" xmlns:serif="http://www.serif.com/" xmlns:xlink="http://www.w3.org/1999/xlink">

<g id="Layer1">

<path d="M16,2c-7.727,0 -14,6.273 -14,14c0,7.727 6.273,14 14,14c7.727,0 14,-6.273 14,-14c0,-7.727 -6.273,-14 -14,-14Zm-3,17.171c-0.313,-0.111 -0.649,-0.171 -1,-0.171c-1.656,0 -3,1.344 -3,3c0,1.656 1.344,3 3,3c1.656,0 3,-1.344 3,-3c0,0 0,-9.42 0,-9.42c0,0 5,-2.857 5,-2.857l0,5.448c-0.313,-0.111 -0.649,-0.171 -1,-0.171c-1.656,0 -3,1.344 -3,3c0,1.656 1.344,3 3,3c1.656,0 3,-1.344 3,-3l0,-10c0,-0.356 -0.19,-0.686 -0.498,-0.865c-0.308,-0.179 -0.689,-0.18 -0.998,-0.003l-7,4c-0.312,0.178 -0.504,0.509 -0.504,0.868l0,7.171Zm-1,1.829c0.552,0 1,0.448 1,1c0,0.552 -0.448,1 -1,1c-0.552,0 -1,-0.448 -1,-1c0,-0.552 0.448,-1 1,-1Zm7,-4c0.552,0 1,0.448 1,1c0,0.552 -0.448,1 -1,1c-0.552,0 -1,-0.448 -1,-1c0,-0.552 0.448,-1 1,-1Z"/>

</g>

</svg>
